#!OML:ASF I:\Actors\actors\Patient Classification 2\Patient 1\Session 1\actor1.ASF
:FULLY-SPECIFIED
:DEGREES
307
root -1.37367 18.5074 5.44165 6.16384 -1.42679 -6.82704
lowerback 18.2008 -0.55527 0.00758976
upperback 3.85945 -0.805627 -1.05787
thorax -6.05578 -0.400627 -0.947344
lowerneck -9.74462 3.30454 3.83932
upperneck 7.51662 3.62718 2.80696
head 4.25971 2.04813 0.506579
rclavicle 9.54166e-015 1.59028e-015
rhumerus -28.4283 13.8341 -2.71357
rradius 102.827
rwrist 2.96289
rhand -12.7386 -3.98906
rfingers 7.12502
rthumb 13.3452 -33.5417
lclavicle 9.54166e-015 1.59028e-015
lhumerus -96.3909 -36.4104 111.873
lradius 102.533
lwrist 5.42862
lhand -5.48601 -63.8967
lfingers 7.12502
lthumb 20.3264 -34.9404
rfemur -8.43059 -5.11898 23.4527
rtibia 17.2932
rfoot -16.603 -3.20834
rtoes -14.1293
lfemur -18.3925 1.41052 -4.00227
ltibia 33.2529
lfoot -19.8967 4.49145
ltoes -58.1715
308
root -1.39036 18.442 5.37367 6.7999 -0.194404 -7.0287
lowerback 18.8069 -0.545656 -0.0445657
upperback 3.94862 -0.801322 -1.04005
thorax -6.28321 -0.396249 -0.896545
lowerneck -10.1777 2.62222 3.12208
upperneck 6.73817 2.7749 3.27973
head 4.04171 1.61954 0.728938
rclavicle 4.77083e-015 6.36111e-015
rhumerus -28.6644 14.0027 -2.8046
rradius 103.939
rwrist 1.65784
rhand -11.8753 -4.46368
rfingers 7.12502
rthumb 14.1772 -33.9599
lclavicle 4.77083e-015 6.36111e-015
lhumerus -96.4599 -36.1722 111.726
lradius 102.739
lwrist 5.20923
lhand -5.2853 -63.9927
lfingers 7.12502
lthumb 20.5193 -35.0571
rfemur -11.1691 -6.10163 23.9235
rtibia 20.9269
rfoot -17.9005 -2.52078
rtoes -14.0555
lfemur -20.9577 1.9869 -3.63194
ltibia 35.3011
lfoot -19.6983 3.02171
ltoes -58.2193
309
root -1.40914 18.364 5.31047 7.4053 1.03323 -7.25334
lowerback 19.3088 -0.491663 -0.0863382
upperback 4.05412 -0.735087 -1.00264
thorax -6.43516 -0.361724 -0.846384
lowerneck -10.664 1.89287 2.28169
upperneck 5.96822 1.86998 3.92785
head 3.85104 1.17213 1.03056
rclavicle 5.56597e-015 -9.54166e-015
rhumerus -28.7051 13.7597 -3.57017
rradius 104.983
rwrist 0.553093
rhand -10.8777 -4.56311
rfingers 7.12502
rthumb 15.1383 -33.9894
lclavicle 5.56597e-015 -9.54166e-015
lhumerus -96.3747 -35.8985 111.514
lradius 103.076
lwrist 5.44735
lhand -4.38367 -63.5928
lfingers 7.12502
lthumb 21.3855 -34.7529
rfemur -13.7389 -7.02436 24.4367
rtibia 24.3109
rfoot -19.2074 -1.93116
rtoes -14.3782
lfemur -23.5251 2.6251 -3.27621
ltibia 37.4372
lfoot -19.5897 1.50435
ltoes -58.3764
310
root -1.42758 18.276 5.251 8.00779 2.27749 -7.52937
lowerback 19.9822 -0.375503 -0.0203853
upperback 3.96079 -0.566055 -0.927705
thorax -6.89175 -0.27985 -0.843153
lowerneck -11.181 1.05562 1.38241
upperneck 5.44368 0.827914 4.60359
head 3.77581 0.663287 1.34855
rclavicle 1.90833e-014 2.70347e-014
rhumerus -28.851 13.6478 -5.09909
rradius 105.942
rwrist 0.932453
rhand -10.8536 -5.07345
rfingers 7.12502
rthumb 15.1615 -34.498
lclavicle 1.90833e-014 2.70347e-014
lhumerus -96.4787 -35.5976 111.557
lradius 103.579
lwrist 6.27805
lhand -2.49246 -62.5378
lfingers 7.12502
lthumb 23.201 -33.9153
rfemur -16.2239 -8.05909 25.0414
rtibia 27.5169
rfoot -20.4107 -1.4043
rtoes -15.3337
lfemur -26.1141 3.19263 -2.89986
ltibia 39.6192
lfoot -19.635 0.0906218
ltoes -58.5932
311
root -1.44503 18.1803 5.19682 8.60384 3.54138 -7.88661
lowerback 20.4592 -0.240807 0.201437
upperback 3.88045 -0.337408 -0.851895
thorax -7.22986 -0.173208 -0.946675
lowerneck -11.6799 0.183477 0.538542
upperneck 4.91299 -0.254232 5.24368
head 3.71741 0.135474 1.64237
rclavicle -4.77083e-015 -1.59028e-015
rhumerus -29.075 13.5467 -7.09841
rradius 107.028
rwrist 0.852257
rhand -10.5903 -5.10652
rfingers 7.12502
rthumb 15.4151 -34.5118
lclavicle -4.77083e-015 -1.59028e-015
lhumerus -96.5073 -35.3889 111.529
lradius 103.918
lwrist 6.82054
lhand -0.935245 -61.9468
lfingers 7.12502
lthumb 24.6943 -33.5204
rfemur -18.6502 -9.15425 25.7734
rtibia 30.6055
rfoot -21.5805 -0.946145
rtoes -16.6714
lfemur -28.7424 3.63059 -2.44559
ltibia 41.8801
lfoot -19.786 -1.25036
ltoes -58.6593
312
root -1.46087 18.0749 5.14646 9.1902 4.87369 -8.30503
lowerback 20.5817 -0.11699 0.252745
upperback 3.91723 -0.138749 -0.570476
thorax -7.25061 -0.0749657 -0.724236
lowerneck -12.0596 -0.631687 -0.360435
upperneck 4.12322 -1.2113 5.69075
head 3.55785 -0.345471 1.88494
rclavicle 2.3059e-014 4.29375e-014
rhumerus -28.5972 12.5477 -9.87014
rradius 107.542
rwrist 1.16433
rhand -10.1324 -4.77526
rfingers 7.12502
rthumb 15.8562 -34.146
lclavicle 2.3059e-014 4.29375e-014
lhumerus -96.0407 -34.9541 111.408
lradius 103.599
lwrist 6.05949
lhand -1.72387 -62.7729
lfingers 7.12502
lthumb 23.9382 -34.2452
rfemur -21.0352 -10.2065 26.6045
rtibia 33.6015
rfoot -22.7884 -0.585023
rtoes -17.8264
lfemur -31.4408 4.03856 -1.94295
ltibia 44.1996
lfoot -19.8381 -2.6462
ltoes -58.6114
313
root -1.4736 17.958 5.09987 9.66081 6.24975 -8.70019
lowerback 20.9878 0.0393578 0.871883
upperback 3.77192 0.202828 -0.565854
thorax -7.6172 0.0738169 -1.1663
lowerneck -12.5169 -1.66495 -1.26785
upperneck 3.46255 -2.47562 6.39014
head 3.49567 -0.961897 2.19705
rclavicle 1.90833e-014 -9.54166e-015
rhumerus -28.8495 12.1193 -13.2292
rradius 108.243
rwrist 1.27018
rhand -10.1342 -4.8001
rfingers 7.12502
rthumb 15.8544 -34.171
lclavicle 1.90833e-014 -9.54166e-015
lhumerus -95.9439 -35.0915 111.378
lradius 102.709
lwrist 4.0292
lhand -4.69278 -64.8332
lfingers 7.12502
lthumb 21.0886 -35.96
rfemur -23.2707 -11.2486 27.4001
rtibia 36.5343
rfoot -24.0125 -0.218943
rtoes -18.5355
lfemur -34.0546 4.3853 -1.49882
ltibia 46.5315
lfoot -19.8822 -3.98423
ltoes -58.6762
314
root -1.48366 17.834 5.05984 9.92684 7.58795 -8.9991
lowerback 21.2567 0.264719 1.21415
upperback 3.79001 0.58909 -0.425923
thorax -7.7278 0.252369 -1.31742
lowerneck -12.8935 -2.70155 -2.19901
upperneck 2.57004 -3.70492 6.92139
head 3.35453 -1.5725 2.45528
rclavicle -1.03368e-014 -2.8625e-014
rhumerus -28.3225 11.1709 -17.0215
rradius 108.229
rwrist 1.75783
rhand -9.68202 -4.67144
rfingers 7.12502
rthumb 16.2898 -34.0072
lclavicle -1.03368e-014 -2.8625e-014
lhumerus -95.4694 -35.2638 111.309
lradius 102.721
lwrist 3.74046
lhand -4.40979 -64.3672
lfingers 7.12502
lthumb 21.3604 -35.5246
rfemur -25.2318 -12.3031 28.0298
rtibia 39.4114
rfoot -25.2196 0.20995
rtoes -19.1873
lfemur -36.3822 4.56458 -1.17022
ltibia 48.8178
lfoot -20.1146 -5.14364
ltoes -58.7641
315
root -1.49289 17.7074 5.02533 10.0733 8.87384 -9.13399
lowerback 21.6692 0.508546 1.47423
upperback 3.68338 0.978312 -0.366944
thorax -8.0481 0.429247 -1.51672
lowerneck -13.0188 -3.73137 -3.07356
upperneck 1.66919 -4.92577 7.42692
head 3.18027 -2.18196 2.69571
rclavicle -1.35174e-014 5.56597e-015
rhumerus -27.5957 10.728 -21.0641
rradius 107.893
rwrist 2.14549
rhand -9.09204 -4.86803
rfingers 7.12502
rthumb 16.8578 -34.1563
lclavicle -1.35174e-014 5.56597e-015
lhumerus -95.324 -35.5793 111.424
lradius 103.477
lwrist 5.01917
lhand -1.92793 -62.6534
lfingers 7.12502
lthumb 23.7425 -34.1001
rfemur -26.9998 -13.3297 28.4286
rtibia 42.2217
rfoot -26.3454 0.61628
rtoes -20.0055
lfemur -38.4819 4.61059 -1.02875
ltibia 51.0107
lfoot -20.4212 -6.16003
ltoes -58.8015
316
root -1.50332 17.5779 4.99796 10.138 10.0444 -9.21422
lowerback 21.7799 0.828271 1.46434
upperback 3.65777 1.4148 -0.163921
thorax -8.1251 0.640077 -1.41461
lowerneck -12.8987 -4.74991 -4.26298
upperneck 0.638684 -6.08015 7.99097
head 2.94779 -2.76388 3.02449
rclavicle 7.15625e-015 -1.19271e-014
rhumerus -26.1626 10.6887 -25.0571
rradius 107.081
rwrist 2.29809
rhand -8.65002 -5.29076
rfingers 7.12502
rthumb 17.2833 -34.5422
lclavicle 7.15625e-015 -1.19271e-014
lhumerus -95.001 -35.8772 111.739
lradius 103.652
lwrist 5.25759
lhand -1.21818 -62.0732
lfingers 7.12502
lthumb 24.4231 -33.6099
rfemur -28.6043 -14.2607 28.7383
rtibia 44.928
rfoot -27.3558 0.965603
rtoes -20.6155
lfemur -40.3722 4.61848 -0.952401
ltibia 53.0882
lfoot -20.7267 -7.02979
ltoes -58.892
317
root -1.51141 17.4469 4.97887 10.094 11.0971 -9.32187
lowerback 21.8237 1.1515 1.62182
upperback 3.63201 1.88205 -0.0802511
thorax -8.15888 0.859882 -1.54594
lowerneck -13.0654 -5.7834 -5.12762
upperneck 0.0617249 -7.30977 8.65304
head 2.63099 -3.34902 2.99063
rclavicle -1.27222e-014 -3.4191e-014
rhumerus -23.6145 11.6496 -29.0615
rradius 105.144
rwrist 2.18983
rhand -9.08978 -5.99925
rfingers 7.12502
rthumb 16.86 -35.2873
lclavicle -1.27222e-014 -3.4191e-014
lhumerus -94.7114 -36.4345 111.955
lradius 103.64
lwrist 5.07186
lhand -0.521223 -61.9377
lfingers 7.12502
lthumb 25.091 -33.5662
rfemur -29.9757 -15.1162 29.0346
rtibia 47.4303
rfoot -28.2686 1.23007
rtoes -20.9275
lfemur -42.0061 4.54552 -0.837281
ltibia 55.015
lfoot -21.0422 -7.74604
ltoes -58.9534
318
root -1.51518 17.3222 4.96702 9.96585 12.0756 -9.40339
lowerback 21.8234 1.48697 1.87266
upperback 3.55018 2.37962 -0.0716335
thorax -8.22075 1.08943 -1.82073
lowerneck -12.9855 -6.79666 -5.78493
upperneck -0.741152 -8.53176 8.91866
head 2.49816 -3.96391 3.09643
rclavicle -4.85035e-014 -4.77083e-015
rhumerus -21.0905 12.3658 -33.571
rradius 102.513
rwrist 2.70636
rhand -9.44511 -5.91714
rfingers 7.12502
rthumb 16.5179 -35.2341
lclavicle -4.85035e-014 -4.77083e-015
lhumerus -94.4952 -37.2434 112.212
lradius 103.653
lwrist 4.84666
lhand -0.22944 -62.1718
lfingers 7.12502
lthumb 25.3706 -33.8396
rfemur -31.0816 -15.9327 29.245
rtibia 49.641
rfoot -29.0427 1.36411
rtoes -21.4966
lfemur -43.3954 4.44702 -0.767354
ltibia 56.7579
lfoot -21.3308 -8.39545
ltoes -59.0534
